<svg width="17" height="23" viewBox="0 0 17 23" fill="none" xmlns="http://www.w3.org/2000/svg">
<path d="M1 9.08193H2.15385V0.861328H10.8077C13.6923 0.861328 16 3.21007 16 6.146C16 9.08193 13.6923 11.4307 10.8077 11.4307H4.46154V13.7794H11.3846V16.1282H4.46154V22H2.15385V16.1282H1V13.7794H2.15385V11.4307H1V9.08193ZM10.8077 3.21007H4.46154V9.08193H10.8077C11.5727 9.08193 12.3065 8.77261 12.8474 8.22202C13.3884 7.67143 13.6923 6.92466 13.6923 6.146C13.6923 5.36735 13.3884 4.62058 12.8474 4.06999C12.3065 3.51939 11.5727 3.21007 10.8077 3.21007Z" fill="black" stroke="black"/>
</svg>
